<?xml version="1.0" encoding="utf-8"?>
<!-- Generator: Adobe Illustrator 16.0.0, SVG Export Plug-In . SVG Version: 6.00 Build 0)  -->
<!DOCTYPE svg PUBLIC "-//W3C//DTD SVG 1.1//EN" "http://www.w3.org/Graphics/SVG/1.1/DTD/svg11.dtd">
<svg version="1.1" id="Calque_1" xmlns="http://www.w3.org/2000/svg" xmlns:xlink="http://www.w3.org/1999/xlink" x="0px" y="0px"
	 width="128px" height="128px" viewBox="0 0 128 128" enable-background="new 0 0 128 128" xml:space="preserve">
<path fill="#FF0000" d="M103.471,72.731l-4.456,2.57l17.077,29.579H85.673V89.465l-31.195,18.019l31.195,18.013v-15.474H125
	L103.471,72.731z M80.524,116.58l-15.762-9.097l15.762-9.103V116.58z M13.563,104.957l15.374-26.471l13.341,7.7V50.174l-3.859,2.229
	L11.076,68.18l13.408,7.737L4.622,110.098h43.087v-5.148h-0.005L13.563,104.957z M21.367,68.18l15.766-9.096v18.198L21.367,68.18z
	 M64.754,16.104L79.96,42.524l-13.338,7.706l31.192,18.007V32.229l-3.854,2.223l-9.544,5.5L64.763,5.816L43.23,43.114l4.451,2.571
	L64.754,16.104z M92.673,41.127v18.199l-15.771-9.097L92.673,41.127z"/>
</svg>
