<?xml version="1.0" encoding="utf-8"?>
<!-- Generator: Adobe Illustrator 16.0.0, SVG Export Plug-In . SVG Version: 6.00 Build 0)  -->
<!DOCTYPE svg PUBLIC "-//W3C//DTD SVG 1.1//EN" "http://www.w3.org/Graphics/SVG/1.1/DTD/svg11.dtd">
<svg version="1.1" id="Calque_1" xmlns="http://www.w3.org/2000/svg" xmlns:xlink="http://www.w3.org/1999/xlink" x="0px" y="0px"
	 width="128px" height="128px" viewBox="0 0 128 128" enable-background="new 0 0 128 128" xml:space="preserve">
<g id="Calque_1_1_" display="none">
</g>
<path fill="none" stroke="#FF0000" stroke-width="5" stroke-miterlimit="10" d="M118.563,109.61c0,4.943-4.009,8.952-8.952,8.952
	H18.39c-4.944,0-8.952-4.009-8.952-8.952V18.389c0-4.944,4.008-8.952,8.952-8.952h91.222c4.943,0,8.952,4.008,8.952,8.952V109.61z"
	/>
<path fill="none" stroke="#FF0000" stroke-width="5" stroke-linecap="round" stroke-linejoin="round" stroke-miterlimit="10" d="
	M99.759,62.24l-27.557-1.723c-1.085-0.069-1.909-1.002-1.841-2.086l1.747-27.923"/>
<path fill="none" stroke="#FF0000" stroke-width="5" stroke-linecap="round" stroke-linejoin="round" stroke-miterlimit="10" d="
	M31.928,65.76l27.556,1.723c1.085,0.069,1.909,1.002,1.841,2.086l-1.746,27.923"/>
<line fill="none" stroke="#FF0000" stroke-width="5" stroke-linecap="round" stroke-linejoin="round" stroke-miterlimit="10" x1="71.361" y1="60.432" x2="104.183" y2="26.516"/>
<line fill="none" stroke="#FF0000" stroke-width="5" stroke-linecap="round" stroke-linejoin="round" stroke-miterlimit="10" x1="26.338" y1="103.484" x2="59.159" y2="69.568"/>
</svg>
