<?xml version="1.0" encoding="utf-8"?>
<!-- Generator: Adobe Illustrator 16.0.0, SVG Export Plug-In . SVG Version: 6.00 Build 0)  -->
<!DOCTYPE svg PUBLIC "-//W3C//DTD SVG 1.1//EN" "http://www.w3.org/Graphics/SVG/1.1/DTD/svg11.dtd">
<svg version="1.1" id="Calque_1" xmlns="http://www.w3.org/2000/svg" xmlns:xlink="http://www.w3.org/1999/xlink" x="0px" y="0px"
	 width="128px" height="128px" viewBox="0 0 128 128" enable-background="new 0 0 128 128" xml:space="preserve">
<g>
	<path fill="#FF0000" d="M106.095,5.083c-11.544,0-20.903,9.358-20.903,20.905s9.359,20.905,20.903,20.905
		c11.546,0,20.905-9.358,20.905-20.905S117.641,5.083,106.095,5.083z M118.56,32.961c1.652,1.783,1.548,4.568-0.237,6.221
		c-0.845,0.785-1.919,1.174-2.99,1.174c-1.184,0-2.362-0.475-3.229-1.41l-6.009-6.482l-6.009,6.482
		c-0.866,0.936-2.048,1.41-3.229,1.41c-1.07,0-2.144-0.389-2.991-1.174c-1.783-1.653-1.888-4.438-0.236-6.221l6.465-6.974
		l-6.465-6.974c-1.651-1.784-1.547-4.569,0.236-6.221c1.786-1.653,4.57-1.546,6.221,0.237l6.009,6.482l6.009-6.482
		c1.65-1.784,4.436-1.892,6.219-0.237c1.785,1.652,1.89,4.437,0.237,6.221l-6.464,6.974L118.56,32.961z"/>
</g>
<g>
	<path fill="#FF0000" d="M23.475,5.083c-11.546,0-20.904,9.358-20.904,20.904s9.358,20.904,20.904,20.904
		s20.904-9.358,20.904-20.904S35.021,5.083,23.475,5.083z M36.984,22.349L22.886,35.96c-0.824,0.795-1.922,1.236-3.058,1.236
		c-0.122,0-0.245-0.005-0.368-0.016c-1.265-0.105-2.422-0.752-3.175-1.774l-6.807-9.238c-1.442-1.958-1.023-4.713,0.932-6.156
		c1.958-1.444,4.714-1.022,6.155,0.932l3.822,5.188l10.481-10.118c1.749-1.689,4.537-1.64,6.225,0.108
		C38.781,17.873,38.732,20.66,36.984,22.349z"/>
</g>
<path fill="none" stroke="#FF0000" stroke-width="4.0583" stroke-linecap="round" stroke-linejoin="round" stroke-miterlimit="10" d="
	M61.838,121.599"/>
<g>
	
		<polygon fill="#FF0000" stroke="#FF0000" stroke-width="4.0583" stroke-linecap="round" stroke-linejoin="round" stroke-miterlimit="10" points="
		42.069,88.469 42.069,77.597 51.484,83.033 60.901,88.469 51.484,93.906 42.069,99.339 	"/>
	
		<polygon fill="#FF0000" stroke="#FF0000" stroke-width="4.0583" stroke-linecap="round" stroke-linejoin="round" stroke-miterlimit="10" points="
		86.342,88.469 86.342,77.597 76.924,83.033 67.51,88.469 76.924,93.906 86.342,99.339 	"/>
	<path fill="#FF0000" d="M69.064,91.623c0,0.875-0.705,1.582-1.579,1.582h-6.284c-0.873,0-1.581-0.707-1.581-1.582V85.34
		c0-0.873,0.708-1.581,1.581-1.581h6.284c0.874,0,1.579,0.708,1.579,1.581V91.623z"/>
</g>
<path fill="none" stroke="#FF0000" stroke-width="4.0583" stroke-miterlimit="10" d="M80.642,49.631
	c0,4.743-1.181,9.127-3.18,12.678c-2.994,5.313-7.815,11.131-13.257,11.131c-5.351,0-10.106-5.708-13.106-10.873
	c-2.089-3.596-3.329-8.077-3.329-12.936c0-11.84,7.358-21.438,16.436-21.438C73.283,28.193,80.642,37.791,80.642,49.631z"/>
<path fill="none" stroke="#FF0000" stroke-width="4.0583" stroke-linecap="round" stroke-linejoin="round" stroke-miterlimit="10" d="
	M98.635,92.479c10.087,10.937,7.625,25.597,7.625,25.597s-3.334,7.253-41.212,7.253c-37.877,0-41.309-7.253-41.309-7.253
	s-2.519-15.017,7.998-25.99"/>
<g id="Calque_2" display="none">
	<g display="inline">
		<path fill="#FF0000" d="M58.242,71.699l2.234,26.217l31.167-59.624L32.04,69.458L58.242,71.699z M64.55,77.678l-0.964-11.313
			l-2.424-0.214l-8.907-0.758L78.004,51.93L64.55,77.678z M70.143,16.587V9.075h-5.768v7.512
			c-23.596,1.438-42.438,20.281-43.876,43.869h-7.512v5.767h7.512c1.438,23.59,20.281,42.424,43.876,43.869v7.506h5.768v-7.506
			c23.588-1.445,42.416-20.279,43.861-43.869h7.52v-5.767h-7.52C112.559,36.868,93.73,18.026,70.143,16.587z M67.259,104.465
			c-22.72-0.044-41.095-18.427-41.125-41.125c0.029-22.712,18.404-41.087,41.125-41.131c22.697,0.044,41.072,18.419,41.116,41.131
			C108.331,86.053,89.956,104.421,67.259,104.465z"/>
	</g>
</g>
</svg>
