<?xml version="1.0" encoding="utf-8"?>
<!-- Generator: Adobe Illustrator 16.0.0, SVG Export Plug-In . SVG Version: 6.00 Build 0)  -->
<!DOCTYPE svg PUBLIC "-//W3C//DTD SVG 1.1//EN" "http://www.w3.org/Graphics/SVG/1.1/DTD/svg11.dtd">
<svg version="1.1"
	 id="Calque_1" xmlns:inkscape="http://www.inkscape.org/namespaces/inkscape" xmlns:sodipodi="http://sodipodi.sourceforge.net/DTD/sodipodi-0.dtd" xmlns:svg="http://www.w3.org/2000/svg" inkscape:version="1.2 (dc2aedaf03, 2022-05-15)" sodipodi:docname="iconPin_v2.svg"
	 xmlns="http://www.w3.org/2000/svg" xmlns:xlink="http://www.w3.org/1999/xlink" x="0px" y="0px" width="128px" height="128px"
	 viewBox="0 0 128 128" enable-background="new 0 0 128 128" xml:space="preserve">
<path id="path2_1_" inkscape:original-d="M 111.266,19.58 C 102.448,10.74 92.368,6.627 88.713,10.197 c -0.342,0.344 -0.593,0.762 -0.8,1.213 l -0.228,-0.212 -4.547,4.595 c 0,0 0.979,5.65 4.789,12.138 C 87.191,27.07 86.818,26.58 86.818,26.58 L 61.321,48.158 c -2.894,-0.735 -14.628,-3.1 -24.145,4.619 0,0 -5.426,6.694 8.273,23.073 L 16.372,104.854 6.157,119.086 20.003,109.631 49.675,80.527 c 2.823,2.674 20.817,19.129 28.111,11.445 0,0 8.623,-11.203 3.438,-24.375 -0.109,-0.24 -0.193,-0.518 -0.277,-0.781 l 21.334,-24.193 c 3.57,2.099 7.791,3.882 12.713,5.054 l 5.4,-5.481 c 0.046,-0.042 0.103,-0.071 0.146,-0.115 0.051,-0.05 0.084,-0.115 0.133,-0.167 l 0.025,-0.026 -0.003,-0.003 c 3.333,-3.757 -0.817,-13.663 -9.429,-22.305 z" fill="#E52420" stroke="#E52420" stroke-width="5" stroke-linecap="round" stroke-linejoin="round" stroke-miterlimit="10" d="
	M67.576,119.168V91.192c3.891-0.188,28.021-1.788,27.516-12.385c0,0-2.133-13.994-15.258-19.376c-0.25-0.087-0.51-0.219-0.758-0.34
	l-2.725-32.183c3.994-1.125,8.209-2.94,12.469-5.685l-0.225-7.701c0-0.063,0.02-0.124,0.018-0.185c0-0.071-0.023-0.141-0.027-0.212
	l-0.002-0.036l-0.004,0c-0.408-5.013-10.455-8.879-22.678-8.644c-12.508,0.247-22.471,4.681-22.42,9.796
	c0.012,0.485,0.141,0.957,0.323,1.418l-0.311,0.018l0.174,6.47c0,0,4.768,3.208,12.104,4.951c-1.133-0.065-1.746-0.135-1.746-0.135
	l-2.055,33.379c-2.537,1.582-12.381,8.423-13.391,20.649c0,0,1.505,8.56,22.852,10.011v28.163H67.576z"/>
<line fill="none" stroke="#E52420" stroke-width="5" stroke-linecap="round" stroke-linejoin="round" stroke-miterlimit="10" x1="12.168" y1="121.5" x2="109.835" y2="121.5"/>
</svg>
