<?xml version="1.0" encoding="utf-8"?>
<!-- Generator: Adobe Illustrator 16.0.0, SVG Export Plug-In . SVG Version: 6.00 Build 0)  -->
<!DOCTYPE svg PUBLIC "-//W3C//DTD SVG 1.1//EN" "http://www.w3.org/Graphics/SVG/1.1/DTD/svg11.dtd">
<svg version="1.1" id="Calque_1" xmlns="http://www.w3.org/2000/svg" xmlns:xlink="http://www.w3.org/1999/xlink" x="0px" y="0px"
	 width="128px" height="128px" viewBox="0 0 128 128" enable-background="new 0 0 128 128" xml:space="preserve">
<g id="Calque_1_1_" display="none">
	<g id="Calque_2" display="inline">
		<g>
			<path fill="none" d="M65.085,64.747c9.406,0,15.547-12.935,16.563-26.153h-30.49c-0.851,0.106-1.718,0.198-2.616,0.25
				C49.617,51.975,55.738,64.747,65.085,64.747z"/>
			<path fill="none" d="M92.959,75.411l-9.646-3.521L67.88,80.637l-5.938-0.092l-15.506-8.65l-9.566,3.521
				c-1.507,0.729-19.394,9.841-18.328,33.109c0.541,0.854,3.165,4.104,11.531,4.178c-0.264-4.405-0.719-14.237-0.156-22.854
				l4.739,0.312c-0.606,9.284,0.032,20.394,0.246,23.604c5.498,4.864,17.007,7.819,30.305,7.707
				c12.979-0.098,24.488-3.1,29.764-7.703c0.194-3.279,0.781-14.629,0.146-23.756l4.738-0.33c0.595,8.51,0.179,18.562-0.063,23.021
				c8.269-0.072,10.908-3.269,11.493-4.19C112.336,85.279,94.51,76.16,92.959,75.411z"/>
			<path fill="#FF0000" d="M35.814,38.594h6.227c0,0.002,0,0.004,0,0.006c-1.305,2.819-1.772,7.667,4.469,13.882
				c3.377,9.688,9.662,17.016,18.575,17.016c8.739,0,15.188-7.482,18.631-17.413c5.837-6.035,5.343-10.733,4.063-13.491h6.232
				c1.215,0,2.194-0.984,2.194-2.199c0-1.214-0.979-2.199-2.194-2.199H91.07c0.016-0.334,0.021-0.671,0.021-1.009
				c0-10.568-6.177-19.661-15.054-23.763c0.023,1.039,0.029,2.212,0.029,3.533v3.8c0,10.968-0.596,11.62-10.621,11.62
				c-10.026,0-10.621-0.652-10.621-11.62v-3.8c0-1.326,0.009-2.498,0.042-3.54c-8.881,4.101-15.063,13.198-15.063,23.77
				c0,0.341,0.03,0.673,0.046,1.009H35.81c-1.214,0-2.199,0.985-2.199,2.199C33.615,37.609,34.6,38.594,35.814,38.594z
				 M51.157,38.594h30.489c-1.021,13.218-7.155,26.153-16.563,26.153c-9.347,0-15.468-12.772-16.543-25.903
				C49.439,38.792,50.306,38.7,51.157,38.594z"/>
			<path fill="#FF0000" d="M94.869,71.063l-14.21-5.192l-12.675,7.409h-6.221l-12.676-7.422L35.13,70.988l-0.173,0.072
				c-0.229,0.104-22.684,10.771-21.134,38.211l0.021,0.354l0.12,0.331c0.119,0.321,2.909,7.502,16.378,7.502
				c0.5,0,1.019-0.015,1.55-0.035c6.384,5.541,18.402,8.798,32.667,8.798c0.229,0,0.455-0.002,0.687-0.004
				c11.188-0.078,25.396-2.453,32.743-8.793c14.758,0.547,17.746-7.134,17.869-7.469l0.123-0.33l0.021-0.354
				C117.55,81.837,95.096,71.166,94.869,71.063z M111.283,108.508c-0.586,0.924-3.227,4.118-11.493,4.189
				c0.241-4.459,0.657-14.51,0.065-23.02l-4.74,0.328c0.637,9.129,0.05,20.479-0.146,23.756c-5.273,4.606-16.783,7.608-29.763,7.703
				c-13.298,0.115-24.808-2.84-30.305-7.705c-0.213-3.215-0.852-14.316-0.246-23.605l-4.739-0.311
				c-0.563,8.612-0.108,18.444,0.156,22.854c-8.366-0.066-10.99-3.318-11.531-4.176c-1.065-23.271,16.821-32.39,18.328-33.11
				l9.566-3.521l15.506,8.648l5.938,0.091l15.434-8.745l9.646,3.52C94.51,76.16,112.336,85.279,111.283,108.508z"/>
			<path fill="#FF0000" d="M73.372,8.367c-0.083-1.763-0.28-2.937-0.769-3.485C71.832,4.017,69.5,3.975,65.45,3.975
				c-3.994,0-6.394,0-7.163,0.853c-0.487,0.541-0.682,1.733-0.763,3.539c2.496-0.824,5.156-1.275,7.921-1.275
				C68.214,7.091,70.876,7.542,73.372,8.367z"/>
			<path fill="#FF0000" d="M57.466,16.756c0,4.501,0,7.218,0.823,8.129c0.77,0.852,3.175,0.852,7.161,0.852
				c3.985,0,6.391,0,7.159-0.852c0.824-0.911,0.824-3.627,0.824-8.129v-3.8c0-1.835-0.004-3.353-0.063-4.589
				c-2.496-0.824-5.158-1.275-7.927-1.275c-2.765,0-5.425,0.451-7.921,1.275c-0.055,1.239-0.059,2.759-0.059,4.589v3.8H57.466z"/>
		</g>
	</g>
	<path display="inline" fill="none" d="M59.547,117.361c-0.81-0.252-1.482-0.887-1.742-1.741L44.151,70.564
		c-0.232-0.771-0.098-1.563,0.309-2.188l-8.486,3.121c-1.233,0.594-20.854,10.446-19.469,35.433
		c0.221,0.514,2.729,5.713,13.817,5.713c0.459-0.002,0.944-0.017,1.438-0.033c0.035-0.002,0.071-0.004,0.105-0.004
		c0.631,0,1.243,0.229,1.721,0.646c5.126,4.449,14.591,7.326,25.879,7.977l-0.196-0.201L59.547,117.361z"/>
	<path display="inline" fill="none" d="M93.514,71.518l-8.342-3.063c0.403,0.626,0.537,1.418,0.305,2.184L71.676,116.18
		c-0.257,0.854-0.926,1.484-1.732,1.738l0.236,3.104l-0.139,0.146c9.482-0.646,20.119-2.949,25.884-7.917
		c0.503-0.438,1.146-0.646,1.812-0.64c0.479,0.021,0.943,0.031,1.396,0.031c11.021-0.002,13.563-5.141,13.813-5.715
		C114.316,82.238,95.174,72.329,93.514,71.518z"/>
	<path display="inline" fill="#33FF33" d="M95.626,66.707c-0.062-0.027-0.121-0.053-0.185-0.075l-13.564-4.993
		c-1.327-0.489-2.801,0.161-3.337,1.467l-1.795,4.373c-0.271,0.662-0.263,1.401,0.024,2.062c0.287,0.647,0.828,1.162,1.498,1.401
		l1.463,0.539l-8.791,29.021l-0.904-15.813c-0.014-0.24-0.061-0.476-0.135-0.689l2.426-3.441c0.455-0.646,0.595-1.459,0.382-2.222
		c-0.044-0.16-0.052-0.188-1.699-4.453c-0.415-1.077-1.477-1.751-2.622-1.675c-0.277,0.009-1.619,0.018-3.66,0.018
		c-2.042,0-3.385-0.009-3.663-0.018c-1.139-0.087-2.203,0.593-2.621,1.668c-2.023,5.204-2.023,5.204-1.583,6.215
		c0.072,0.165,0.159,0.316,0.263,0.467l2.427,3.441c-0.074,0.221-0.121,0.449-0.134,0.689l-0.873,15.258l-8.645-28.523l1.304-0.479
		c0.671-0.246,1.213-0.756,1.5-1.41c0.286-0.652,0.294-1.396,0.021-2.063l-1.811-4.372c-0.541-1.302-2.014-1.945-3.333-1.459
		l-13.397,4.926c-0.032,0.011-0.063,0.021-0.093,0.035l-0.174,0.066c-0.033,0.02-0.064,0.023-0.095,0.042
		c-0.242,0.106-24.2,11.438-22.556,40.563l0.02,0.351c0.015,0.261,0.067,0.515,0.156,0.758l0.12,0.326
		c0.345,0.94,3.797,9.19,18.767,9.19c0.206,0,0.415-0.004,0.628-0.008c7.023,5.557,19.108,8.725,33.408,8.725h0.011l0.696-0.002
		c5.389-0.039,23.369-0.793,33.476-8.721c0.195,0.004,0.39,0.006,0.581,0.006c14.989-0.002,18.423-8.256,18.764-9.194l0.121-0.328
		c0.086-0.239,0.139-0.489,0.153-0.745l0.021-0.354C119.833,78.107,95.869,66.816,95.626,66.707z M59.268,78.835
		c-0.009-0.019,1.623-4.214,1.623-4.214c0.191,0.027,7.479,0.027,7.669,0c0,0,1.603,4.15,1.619,4.214l-2.597,3.683H61.86
		L59.268,78.835z M112.943,106.928c-0.25,0.574-2.795,5.713-13.816,5.715c-0.447,0-0.916-0.016-1.391-0.031
		c-0.666-0.01-1.313,0.201-1.813,0.64c-5.765,4.968-16.399,7.271-25.884,7.917l-5.314,3.396l-5.262-3.338
		c-11.288-0.646-20.753-3.521-25.879-7.976c-0.478-0.415-1.089-0.646-1.721-0.646c-0.034,0-0.071,0.002-0.105,0.004
		c-0.494,0.021-0.979,0.029-1.438,0.031c-11.088,0-13.596-5.199-13.817-5.711c-1.384-24.984,18.237-34.84,19.47-35.434l8.486-3.121
		c-0.406,0.627-0.541,1.422-0.309,2.188l13.653,45.059c0.26,0.854,0.933,1.486,1.742,1.738l2.49-32.729h5.376l2.528,33.281
		c0.809-0.254,1.478-0.889,1.729-1.739L85.475,70.63c0.232-0.765,0.104-1.556-0.305-2.183l8.342,3.068
		C95.174,72.329,114.316,82.238,112.943,106.928z"/>
	<path display="inline" fill="#FFFFFF" d="M66.225,80.09l1.004-1.424c-0.146-0.378-0.308-0.801-0.463-1.2
		c-0.527,0.001-1.195,0.001-2.039,0.001c-0.849,0-1.517,0-2.042-0.001c-0.167,0.433-0.326,0.841-0.464,1.196l1.007,1.428H66.225z"/>
	<path display="inline" fill="#FFFFFF" d="M67.588,82.518l2.592-3.683c-0.018-0.063-1.619-4.214-1.619-4.214
		c-0.188,0.027-7.479,0.027-7.667,0c0,0-1.631,4.195-1.623,4.214l2.596,3.683H67.588z"/>
	<path display="inline" fill="none" stroke="#FF0000" stroke-width="4" stroke-miterlimit="10" d="M84.975,32.14
		c0,5.844-1.455,11.245-3.918,15.62c-3.687,6.545-9.629,13.713-16.332,13.713c-6.594,0-12.451-7.032-16.146-13.396
		c-2.574-4.43-4.102-9.951-4.102-15.938c0-14.587,9.066-26.413,20.25-26.413C75.909,5.726,84.975,17.553,84.975,32.14z"/>
</g>
<polyline fill="none" stroke="#FF0000" stroke-width="5" stroke-linecap="round" stroke-linejoin="round" stroke-miterlimit="10" points="
	122.182,56.859 111.424,91.576 48.258,91.576 29.16,33.151 4.149,33.151 "/>
<circle fill="#FF0000" cx="54.343" cy="109.083" r="8.823"/>
<circle fill="#FF0000" cx="106.563" cy="109.083" r="8.822"/>
<g>
	<path fill="#FF0000" d="M79.602,66.993L54.853,47.311V32.469l18.148,14.432V18.027h13.201v28.875l18.148-14.432v14.842
		L79.602,66.993z"/>
</g>
</svg>
