<?xml version="1.0" encoding="utf-8"?>
<!-- Generator: Adobe Illustrator 16.0.0, SVG Export Plug-In . SVG Version: 6.00 Build 0)  -->
<!DOCTYPE svg PUBLIC "-//W3C//DTD SVG 1.1//EN" "http://www.w3.org/Graphics/SVG/1.1/DTD/svg11.dtd">
<svg version="1.1" xmlns="http://www.w3.org/2000/svg" xmlns:xlink="http://www.w3.org/1999/xlink" x="0px" y="0px" width="128px"
	 height="128px" viewBox="0 0 128 128" enable-background="new 0 0 128 128" xml:space="preserve">
<g id="Calque_1" display="none">
	<g id="Calque_1_1_" display="inline">
		<path fill="#FF0000" d="M103.471,72.73l-4.455,2.57l17.076,29.579H85.673V89.465l-31.195,18.02l31.195,18.013v-15.474H125
			L103.471,72.73z M80.523,116.58l-15.762-9.098l15.762-9.103V116.58z M13.563,104.957l15.374-26.471l13.341,7.699V50.174
			l-3.859,2.229L11.076,68.18l13.408,7.737L4.622,110.098h43.087v-5.147h-0.005L13.563,104.957z M21.367,68.18l15.766-9.096v18.198
			L21.367,68.18z M64.754,16.104l15.206,26.42L66.622,50.23l31.192,18.006V32.229l-3.854,2.223l-9.544,5.5L64.764,5.816
			L43.23,43.114l4.451,2.571L64.754,16.104z M92.673,41.127v18.199l-15.771-9.097L92.673,41.127z"/>
	</g>
	<g id="Calque_2">
		<g display="inline">
			<path fill="#FF0000" d="M58.242,71.699l2.234,26.217l31.167-59.624L32.04,69.458L58.242,71.699z M64.55,77.678l-0.964-11.313
				l-2.424-0.214l-8.907-0.758L78.004,51.93L64.55,77.678z M70.143,16.587V9.075h-5.768v7.512
				c-23.596,1.438-42.438,20.281-43.876,43.869h-7.512v5.767h7.512c1.438,23.59,20.281,42.424,43.876,43.869v7.506h5.768v-7.506
				c23.588-1.445,42.416-20.279,43.861-43.869h7.52v-5.767h-7.52C112.559,36.868,93.73,18.026,70.143,16.587z M67.259,104.465
				c-22.72-0.044-41.095-18.427-41.125-41.125c0.029-22.712,18.404-41.087,41.125-41.131c22.697,0.044,41.072,18.419,41.116,41.131
				C108.331,86.053,89.956,104.421,67.259,104.465z"/>
		</g>
	</g>
</g>
<g id="Calque_2_1_">
	<g>
		<g>
			
				<path fill="none" stroke="#FF0000" stroke-width="3.6215" stroke-linecap="round" stroke-linejoin="round" stroke-miterlimit="10" d="
				M93.645,58.678c0-3.342-2.735-6.077-6.076-6.077c-3.342,0-6.076,2.734-6.076,6.077V55.15c0-3.342-2.734-6.076-6.076-6.076
				c-3.34,0-6.076,2.734-6.076,6.076v-6.486c0-3.342-2.732-6.076-6.074-6.076c-3.34,0-6.076,2.734-6.076,6.076V21.226
				c0-3.342-2.734-6.076-6.075-6.076c-3.342,0-6.076,2.734-6.076,6.076v39.441l-4.721-8.179c-1.669-2.895-5.406-3.896-8.299-2.225
				c-2.895,1.671-3.896,5.406-2.224,8.301c0,0,12.634,46.736,23.083,46.736h21.765c10.449,0,19.001-21.903,19.001-22.321V58.678z"/>
			
				<rect x="41.472" y="105.301" fill="none" stroke="#FF0000" stroke-width="3.6215" stroke-linecap="round" stroke-linejoin="round" stroke-miterlimit="10" width="48.404" height="20.211"/>
		</g>
		
			<path fill="none" stroke="#FF0000" stroke-width="3.6215" stroke-linecap="round" stroke-linejoin="round" stroke-miterlimit="10" d="
			M36.495,20.973c0-7.972,6.462-14.434,14.433-14.434c7.972,0,14.435,6.462,14.435,14.434"/>
	</g>
</g>
</svg>
