<?xml version="1.0" encoding="utf-8"?>
<!-- Generator: Adobe Illustrator 16.0.0, SVG Export Plug-In . SVG Version: 6.00 Build 0)  -->
<!DOCTYPE svg PUBLIC "-//W3C//DTD SVG 1.1//EN" "http://www.w3.org/Graphics/SVG/1.1/DTD/svg11.dtd">
<svg version="1.1" id="Calque_1" xmlns="http://www.w3.org/2000/svg" xmlns:xlink="http://www.w3.org/1999/xlink" x="0px" y="0px"
	 width="128px" height="128px" viewBox="0 0 128 128" enable-background="new 0 0 128 128" xml:space="preserve">
<g id="Calque_1_1_" display="none">
</g>
<path fill="none" stroke="#FF0000" stroke-width="5" stroke-miterlimit="10" d="M118.591,109.914c0,4.943-4.009,8.952-8.952,8.952
	H18.417c-4.944,0-8.952-4.009-8.952-8.952V18.692c0-4.944,4.008-8.952,8.952-8.952h91.222c4.943,0,8.952,4.008,8.952,8.952V109.914z
	"/>
<path fill="#FF0000" d="M55.376,52.684c0,2.504-1.98,4.532-4.424,4.532H29.736c-2.443,0-4.424-2.028-4.424-4.532V30.946
	c0-2.504,1.981-4.533,4.424-4.533h21.216c2.444,0,4.424,2.029,4.424,4.533V52.684z"/>
<path fill="#FF0000" d="M55.376,95.581c0,2.504-1.98,4.533-4.424,4.533H29.736c-2.443,0-4.424-2.029-4.424-4.533V73.843
	c0-2.503,1.981-4.531,4.424-4.531h21.216c2.444,0,4.424,2.028,4.424,4.531V95.581z"/>
<path fill="#FF0000" d="M99.014,95.581c0,2.504-1.98,4.533-4.424,4.533H73.375c-2.444,0-4.424-2.029-4.424-4.533V73.843
	c0-2.503,1.979-4.531,4.424-4.531H94.59c2.443,0,4.424,2.028,4.424,4.531V95.581z"/>
</svg>
