<?xml version="1.0" encoding="utf-8"?>
<!-- Generator: Adobe Illustrator 16.0.0, SVG Export Plug-In . SVG Version: 6.00 Build 0)  -->
<!DOCTYPE svg PUBLIC "-//W3C//DTD SVG 1.1//EN" "http://www.w3.org/Graphics/SVG/1.1/DTD/svg11.dtd">
<svg version="1.1" id="Calque_1" xmlns="http://www.w3.org/2000/svg" xmlns:xlink="http://www.w3.org/1999/xlink" x="0px" y="0px"
	 width="128px" height="128px" viewBox="0 0 128 128" enable-background="new 0 0 128 128" xml:space="preserve">
<path fill="#FF0000" d="M42.401,104.827c-2.511,0-4.793-0.366-6.902-1.103c-2.12-0.736-3.921-1.832-5.456-3.283
	c-1.509-1.446-2.689-3.27-3.514-5.451c-0.825-2.178-1.243-4.688-1.243-7.539c0-2.657,0.397-5.064,1.196-7.227
	c0.804-2.166,1.947-4.021,3.461-5.564c1.446-1.479,3.247-2.626,5.419-3.456c2.151-0.794,4.505-1.222,7.059-1.222
	c1.41,0,2.684,0.088,3.811,0.24c1.128,0.146,2.183,0.354,3.143,0.614c1.008,0.293,1.911,0.597,2.731,0.966
	c0.819,0.34,1.535,0.68,2.146,0.977v8.136H53.25c-0.396-0.354-0.945-0.783-1.587-1.274c-0.616-0.49-1.357-0.98-2.151-1.451
	c-0.825-0.479-1.723-0.877-2.684-1.211c-0.976-0.334-1.984-0.496-3.08-0.496c-1.227,0-2.371,0.184-3.467,0.568
	c-1.096,0.371-2.109,1.004-3.023,1.891c-0.888,0.847-1.619,1.983-2.151,3.39c-0.559,1.414-0.82,3.116-0.82,5.121
	c0,2.108,0.313,3.854,0.888,5.253c0.59,1.408,1.342,2.521,2.24,3.32c0.914,0.818,1.932,1.42,3.06,1.765
	c1.127,0.345,2.234,0.532,3.331,0.532c1.055,0,2.094-0.156,3.123-0.465c1.023-0.328,1.973-0.758,2.84-1.278
	c0.742-0.435,1.425-0.897,2.057-1.39c0.626-0.502,1.144-0.93,1.545-1.278h0.898v8.014c-0.835,0.365-1.639,0.726-2.401,1.06
	c-0.757,0.336-1.566,0.611-2.412,0.853c-1.091,0.317-2.115,0.56-3.065,0.726C45.403,104.743,44.072,104.827,42.401,104.827
	L42.401,104.827z"/>
<path fill="#FF0000" d="M87.438,93.645c0,3.299-1.398,5.982-4.196,8.045c-2.8,2.063-6.601,3.097-11.403,3.097
	c-2.788,0-5.189-0.245-7.257-0.731c-2.067-0.49-3.999-1.105-5.795-1.879v-8.035h0.94c1.786,1.445,3.785,2.531,5.999,3.289
	c2.215,0.756,4.35,1.147,6.385,1.147c0.522,0,1.213-0.048,2.068-0.12c0.855-0.1,1.557-0.24,2.114-0.459
	c0.657-0.277,1.2-0.596,1.629-1.008s0.638-1.008,0.638-1.803c0-0.74-0.304-1.377-0.931-1.904c-0.626-0.521-1.534-0.939-2.751-1.227
	c-1.248-0.304-2.574-0.574-3.975-0.836c-1.424-0.262-2.739-0.602-3.957-1.002c-2.818-0.92-4.854-2.152-6.104-3.719
	c-1.227-1.576-1.854-3.52-1.854-5.857c0-3.121,1.394-5.67,4.192-7.644c2.798-1.963,6.401-2.961,10.796-2.961
	c2.203,0,4.387,0.215,6.553,0.632c2.142,0.43,4.021,0.977,5.598,1.619v7.716h-0.93c-1.348-1.08-3.012-1.983-4.977-2.715
	c-1.937-0.741-3.941-1.086-5.978-1.086c-0.741,0-1.451,0.047-2.151,0.126c-0.72,0.113-1.398,0.303-2.057,0.553
	c-0.59,0.23-1.098,0.559-1.516,1.02c-0.416,0.465-0.625,0.986-0.625,1.566c0,0.887,0.338,1.57,1.013,2.041
	c0.668,0.479,1.932,0.907,3.821,1.289c1.223,0.256,2.412,0.518,3.551,0.758c1.128,0.239,2.339,0.559,3.654,0.991
	c2.568,0.841,4.459,1.983,5.687,3.445C86.82,89.451,87.438,91.325,87.438,93.645L87.438,93.645z"/>
<polygon fill="#FF0000" points="123.744,70.661 111.518,104.174 101.848,104.174 89.62,70.661 98.693,70.661 106.797,94.188 
	114.895,70.661 "/>
<path fill="none" stroke="#FF0000" stroke-width="5" stroke-miterlimit="10" d="M90.527,64.834V11.037
	c0-2.958-2.391-5.346-5.346-5.346h-74.18c-2.944,0-5.346,2.389-5.346,5.346v106.926c0,2.955,2.402,5.346,5.346,5.346h74.18
	c2.955,0,5.346-2.391,5.346-5.346v-6.13"/>
</svg>
