<?xml version="1.0" encoding="utf-8"?>
<!-- Generator: Adobe Illustrator 16.0.0, SVG Export Plug-In . SVG Version: 6.00 Build 0)  -->
<!DOCTYPE svg PUBLIC "-//W3C//DTD SVG 1.1//EN" "http://www.w3.org/Graphics/SVG/1.1/DTD/svg11.dtd">
<svg version="1.1" id="Calque_4" xmlns="http://www.w3.org/2000/svg" xmlns:xlink="http://www.w3.org/1999/xlink" x="0px" y="0px"
	 width="128px" height="128px" viewBox="0 0 128 128" enable-background="new 0 0 128 128" xml:space="preserve">
<polyline fill="none" stroke="#FF0000" stroke-width="9" stroke-linecap="round" stroke-linejoin="round" stroke-miterlimit="10" points="
	31.54,67.185 57.63,98.125 104.958,39.391 "/>
<path fill="none" stroke="#FF0000" stroke-width="5" stroke-miterlimit="10" d="M119.032,109.611c0,4.943-4.009,8.951-8.952,8.951
	H18.858c-4.944,0-8.952-4.008-8.952-8.951V18.389c0-4.944,4.008-8.952,8.952-8.952h91.222c4.943,0,8.952,4.008,8.952,8.952V109.611z
	"/>
<path fill="#FF0000" d="M65.249,0.508H3c-1.657,0-3,1.345-3,3v62.25c0,1.657,1.343,3,3,3h62.249c1.658,0,3-1.343,3-3V3.508
	C68.249,1.853,66.907,0.508,65.249,0.508z M15.229,54.08c-2.769,0-5.013-2.242-5.013-5.012c0-2.768,2.244-5.01,5.013-5.01
	c2.766,0,5.01,2.242,5.01,5.01C20.239,51.838,17.995,54.08,15.229,54.08z M15.229,38.843c-2.769,0-5.013-2.242-5.013-5.01
	c0-2.77,2.244-5.012,5.013-5.012c2.766,0,5.01,2.244,5.01,5.012C20.239,36.601,17.995,38.843,15.229,38.843z M15.229,23.607
	c-2.769,0-5.013-2.244-5.013-5.01c0-2.769,2.244-5.013,5.013-5.013c2.766,0,5.01,2.244,5.01,5.013
	C20.239,21.362,17.995,23.607,15.229,23.607z M53.854,53.23H30.128c-2.305,0-4.174-1.869-4.174-4.177
	c0-2.307,1.869-4.177,4.174-4.177h23.729c2.306,0,4.174,1.87,4.174,4.177C58.029,51.359,56.161,53.23,53.854,53.23z M53.854,37.988
	H30.128c-2.305,0-4.174-1.867-4.174-4.175c0-2.306,1.869-4.176,4.174-4.176h23.729c2.306,0,4.174,1.87,4.174,4.176
	C58.027,36.121,56.161,37.988,53.854,37.988z M53.854,22.752H30.128c-2.305,0-4.174-1.869-4.174-4.175
	c0-2.307,1.869-4.176,4.174-4.176h23.729c2.306,0,4.174,1.869,4.174,4.176C58.029,20.883,56.161,22.752,53.854,22.752z"/>
</svg>
