<?xml version="1.0" encoding="utf-8"?>
<!-- Generator: Adobe Illustrator 16.0.0, SVG Export Plug-In . SVG Version: 6.00 Build 0)  -->
<!DOCTYPE svg PUBLIC "-//W3C//DTD SVG 1.1//EN" "http://www.w3.org/Graphics/SVG/1.1/DTD/svg11.dtd">
<svg version="1.1" id="Calque_1" xmlns="http://www.w3.org/2000/svg" xmlns:xlink="http://www.w3.org/1999/xlink" x="0px" y="0px"
	 width="128px" height="128px" viewBox="0 0 128 128" enable-background="new 0 0 128 128" xml:space="preserve">
<g id="Calque_1_1_" display="none">
</g>
<path fill="none" stroke="#FF0000" stroke-width="5" stroke-miterlimit="10" d="M118.563,109.61c0,4.943-4.009,8.952-8.952,8.952
	H18.39c-4.944,0-8.952-4.009-8.952-8.952V18.389c0-4.944,4.008-8.952,8.952-8.952h91.222c4.943,0,8.952,4.008,8.952,8.952V109.61z"
	/>
<path fill="none" stroke="#FF0000" stroke-width="5" stroke-miterlimit="10" d="M95.725,24.516l11.434,12.957L93.886,49.184
	l6.336,7.179c0,0,2.587,2.585,1.119,4.693c-0.98,1.407-2.341,1.252-3.424,1.185L70.36,60.518c-1.085-0.069-1.909-1.002-1.841-2.086
	l1.747-27.923c0.067-1.083,0.743-3.216,2.717-3.36c1.481-0.087,2.51,1.193,2.51,1.193l6.959,7.884L95.725,24.516z"/>
<path fill="none" stroke="#FF0000" stroke-width="5" stroke-miterlimit="10" d="M32.277,103.484L20.844,90.527l13.273-11.711
	l-6.337-7.179c0,0-2.587-2.585-1.119-4.693c0.98-1.407,2.341-1.252,3.425-1.185l27.556,1.723c1.085,0.069,1.909,1.002,1.841,2.086
	l-1.746,27.923c-0.068,1.082-0.744,3.216-2.719,3.361c-1.48,0.086-2.51-1.193-2.51-1.193l-6.957-7.885L32.277,103.484z"/>
</svg>
