<?xml version="1.0" encoding="utf-8"?>
<!-- Generator: Adobe Illustrator 16.0.0, SVG Export Plug-In . SVG Version: 6.00 Build 0)  -->
<!DOCTYPE svg PUBLIC "-//W3C//DTD SVG 1.1//EN" "http://www.w3.org/Graphics/SVG/1.1/DTD/svg11.dtd">
<svg version="1.1" xmlns="http://www.w3.org/2000/svg" xmlns:xlink="http://www.w3.org/1999/xlink" x="0px" y="0px" width="128px"
	 height="128px" viewBox="0 0 128 128" enable-background="new 0 0 128 128" xml:space="preserve">
<g id="Calque_1" display="none">
	<g id="Calque_1_1_" display="inline">
		<path fill="#FF0000" d="M103.471,72.73l-4.455,2.57l17.076,29.579H85.673V89.465l-31.195,18.02l31.195,18.013v-15.474H125
			L103.471,72.73z M80.523,116.58l-15.762-9.098l15.762-9.103V116.58z M13.563,104.957l15.374-26.471l13.341,7.699V50.174
			l-3.859,2.229L11.076,68.18l13.408,7.737L4.622,110.098h43.087v-5.147h-0.005L13.563,104.957z M21.367,68.18l15.766-9.096v18.198
			L21.367,68.18z M64.754,16.104l15.206,26.42L66.622,50.23l31.192,18.006V32.229l-3.854,2.223l-9.544,5.5L64.764,5.816
			L43.23,43.114l4.451,2.571L64.754,16.104z M92.673,41.127v18.199l-15.771-9.097L92.673,41.127z"/>
	</g>
	<g id="Calque_2">
		<g display="inline">
			<path fill="#FF0000" d="M58.242,71.699l2.234,26.217l31.167-59.624L32.04,69.458L58.242,71.699z M64.55,77.678l-0.964-11.313
				l-2.424-0.214l-8.907-0.758L78.004,51.93L64.55,77.678z M70.143,16.587V9.075h-5.768v7.512
				c-23.596,1.438-42.438,20.281-43.876,43.869h-7.512v5.767h7.512c1.438,23.59,20.281,42.424,43.876,43.869v7.506h5.768v-7.506
				c23.588-1.445,42.416-20.279,43.861-43.869h7.52v-5.767h-7.52C112.559,36.868,93.73,18.026,70.143,16.587z M67.259,104.465
				c-22.72-0.044-41.095-18.427-41.125-41.125c0.029-22.712,18.404-41.087,41.125-41.131c22.697,0.044,41.072,18.419,41.116,41.131
				C108.331,86.053,89.956,104.421,67.259,104.465z"/>
		</g>
	</g>
</g>
<g id="Calque_2_1_">
	<g>
		<path fill="none" stroke="#FF0000" stroke-width="5" stroke-linecap="round" stroke-linejoin="round" stroke-miterlimit="10" d="
			M48.864,21.007c-3.926-0.005-7.212-0.276-8.759-1.822l-2.843-2.842c-6.21-6.211-6.421-4.527-11.053,0.105L8.276,34.381
			c-6.316,6.316-6.737,8.843-3.579,12.001c3.158,3.158,0.421,0.21,2.42,2.211c6.948,6.948-6.205,10.835,9.48,26.521l0,0
			 M62.645,108.804l11.984,11.807c1.678,1.678,4.398,1.678,6.076,0l3.563-3.563c1.437-1.438,1.634-3.633,0.613-5.286
			c0.148-0.112-10.427-11.556-10.285-11.696c0.072-0.073,10.858,11.177,10.923,11.104c1.652,1,3.828,0.799,5.255-0.628l3.564-3.563
			c1.541-1.543,1.649-3.95,0.36-5.636c0.08-0.074-14.958-14.823-14.875-14.903c0.07-0.069,15.26,14.532,15.334,14.459
			c0.015-0.016,0.027-0.029,0.044-0.042c1.686,1.279,4.088,1.17,5.626-0.369l3.564-3.563c1.53-1.532,1.648-3.927,0.38-5.612
			c0.071-0.075-13.581-13.322-13.501-13.399l10.605,9.895c0.122-0.122,3.363,3.174,3.485,3.051c1.68,1.207,4.024,1.069,5.534-0.44
			l3.564-3.563c1.679-1.678,1.679-4.399,0-6.08l-7.011-6.537"/>
		<g>
			<g>
				<path fill="none" stroke="#FF0000" stroke-width="5" d="M36.917,68.071c1.678,1.677,1.678,4.397,0,6.076l-16.27,16.271
					c-1.679,1.678-4.398,1.678-6.077,0l-3.564-3.563c-1.677-1.678-1.677-4.399,0-6.08l16.271-16.268c1.678-1.68,4.398-1.68,6.077,0
					L36.917,68.071z"/>
				<path fill="none" stroke="#FF0000" stroke-width="5" d="M46.987,78.142c1.677,1.677,1.677,4.398,0,6.075l-16.271,16.271
					c-1.679,1.678-4.398,1.678-6.077,0l-3.563-3.563c-1.678-1.678-1.678-4.397,0-6.079l16.27-16.268
					c1.679-1.681,4.399-1.681,6.078,0L46.987,78.142z"/>
				<path fill="none" stroke="#FF0000" stroke-width="5" d="M57.04,88.193c1.678,1.68,1.678,4.399,0,6.077L40.77,110.541
					c-1.679,1.678-4.398,1.678-6.077,0l-3.563-3.563c-1.678-1.679-1.678-4.399,0-6.08L47.4,84.632c1.678-1.681,4.398-1.681,6.077,0
					L57.04,88.193z"/>
				<path fill="none" stroke="#FF0000" stroke-width="5" d="M67.109,98.265c1.677,1.677,1.677,4.397,0,6.075L50.84,120.61
					c-1.679,1.678-4.399,1.678-6.078,0l-3.563-3.563c-1.678-1.679-1.678-4.398,0-6.079L57.47,94.7c1.678-1.681,4.398-1.681,6.078,0
					L67.109,98.265z"/>
			</g>
		</g>
		<path fill="none" stroke="#FF0000" stroke-width="5" d="M121.262,37.993c-4.015-4.015-20.189-19.244-24.086-23.14
			c-3.895-3.896-6.847-2.126-10.153,1.18c-3.306,3.306-5.194,3.306-9.443,3.306c-4.252,0-15.585-0.236-21.017-0.236
			c-6.11,0-8.976,2.317-11.473,5.45L32.983,36.661c-3.891,3.891-5.635,6.279-3.241,8.671l0.541,0.542
			c2.668,2.668,13.646,6.027,20.591-0.917l7.587-7.588c4.195-3.197,8.251-3.866,11.915-0.202
			c4.487,4.486,31.406,31.405,37.075,37.071c3.593-3.593,1.906-1.913,5.695-5.704c7.438-7.438,2.804-15.546,6.228-18.971
			C122.797,46.14,125.275,42.008,121.262,37.993z"/>
	</g>
</g>
</svg>
