<?xml version="1.0" encoding="utf-8"?>
<!-- Generator: Adobe Illustrator 16.0.0, SVG Export Plug-In . SVG Version: 6.00 Build 0)  -->
<!DOCTYPE svg PUBLIC "-//W3C//DTD SVG 1.1//EN" "http://www.w3.org/Graphics/SVG/1.1/DTD/svg11.dtd">
<svg version="1.1" id="Calque_1" xmlns="http://www.w3.org/2000/svg" xmlns:xlink="http://www.w3.org/1999/xlink" x="0px" y="0px"
	 width="128px" height="128px" viewBox="0 0 128 128" enable-background="new 0 0 128 128" xml:space="preserve">
<g id="Calque_3">
	
		<path fill="none" stroke="#FF0000" stroke-width="4.1013" stroke-linecap="round" stroke-linejoin="round" stroke-miterlimit="10" d="
		M60.143,105.692"/>
	
		<path fill="none" stroke="#FF0000" stroke-width="4.1013" stroke-linecap="round" stroke-linejoin="round" stroke-miterlimit="10" d="
		M63.896,62.34"/>
	<g>
		<g>
			<g>
				
					<path fill="none" stroke="#FF0000" stroke-width="5" stroke-linecap="round" stroke-linejoin="round" stroke-miterlimit="10" d="
					M63.795,13.353c27.905-0.002,50.528,22.622,50.526,50.527c0,27.901-22.62,50.522-50.524,50.522
					c-27.905,0.005-50.529-22.619-50.525-50.525C13.271,35.973,35.893,13.353,63.795,13.353z"/>
			</g>
		</g>
	</g>
</g>
<g id="Calque_5" display="none">
	<g display="inline">
		<g>
			
				<polygon fill="#FF0000" stroke="#FF0000" stroke-width="4.8923" stroke-linecap="round" stroke-linejoin="round" stroke-miterlimit="10" points="
				47.037,69.814 47.037,61.918 53.876,65.866 60.716,69.814 53.876,73.766 47.037,77.711 			"/>
			
				<polygon fill="#FF0000" stroke="#FF0000" stroke-width="4.8923" stroke-linecap="round" stroke-linejoin="round" stroke-miterlimit="10" points="
				79.195,69.814 79.195,61.918 72.354,65.866 65.518,69.814 72.354,73.766 79.195,77.711 			"/>
			<path fill="#FF0000" d="M66.646,72.105c0,0.636-0.513,1.148-1.146,1.148h-4.564c-0.634,0-1.148-0.514-1.148-1.148v-4.563
				c0-0.634,0.514-1.147,1.148-1.147H65.5c0.635,0,1.146,0.515,1.146,1.147V72.105z"/>
		</g>
		<path fill="none" stroke="#FF0000" stroke-width="4.8923" stroke-miterlimit="10" d="M75.055,41.604
			c0,3.445-0.857,6.63-2.309,9.209c-2.176,3.858-5.678,8.085-9.63,8.085c-3.887,0-7.341-4.146-9.521-7.897
			c-1.517-2.612-2.418-5.867-2.418-9.397c0-8.6,5.345-15.573,11.939-15.573C69.71,26.031,75.055,33.003,75.055,41.604z"/>
		
			<path fill="none" stroke="#FF0000" stroke-width="4.8923" stroke-linecap="round" stroke-linejoin="round" stroke-miterlimit="10" d="
			M88.125,72.729c7.328,7.944,5.54,18.595,5.54,18.595s-2.422,5.268-29.937,5.268c-27.514,0-30.006-5.268-30.006-5.268
			s-1.83-10.909,5.809-18.88"/>
	</g>
</g>
<g id="Calque_6">
	<g>
		
			<circle fill="none" stroke="#FF0000" stroke-width="5" stroke-linecap="round" stroke-linejoin="round" stroke-miterlimit="10" cx="63.797" cy="49.455" r="17.832"/>
		<path fill="none" stroke="#FF0000" stroke-width="5" stroke-linecap="round" stroke-linejoin="round" stroke-miterlimit="10" d="
			M34.953,96.129c0-15.93,12.915-28.843,28.843-28.843c15.931,0,28.845,12.913,28.845,28.843H34.953z"/>
	</g>
</g>
<g id="Calque_2" display="none">
	<g display="inline">
		<g>
			<path fill="none" stroke="#FC0000" stroke-width="5" stroke-linecap="round" stroke-linejoin="round" stroke-miterlimit="10" d="
				M72.145,89.791c-6.404,3.521-13.755,5.534-21.575,5.561C25.706,95.271,5.573,75.09,5.573,50.209S25.706,5.146,50.57,5.067
				c24.864,0.079,44.999,20.26,44.999,45.142c0,1.822-0.109,3.618-0.318,5.382"/>
			<path fill="none" stroke="#FC0000" stroke-width="5" stroke-linecap="round" stroke-linejoin="round" stroke-miterlimit="10" d="
				M62.64,85.443c-3.508,4.033-7.583,7.414-12.071,9.826c-15.084-8.108-25.495-27.168-25.495-45.061
				c0-17.891,10.41-36.952,25.495-45.062c12.684,6.818,22.063,21.379,24.728,36.478"/>
			
				<line fill="none" stroke="#FC0000" stroke-width="5" stroke-linecap="round" stroke-linejoin="round" stroke-miterlimit="10" x1="5.573" y1="50.209" x2="55.832" y2="50.209"/>
			
				<line fill="none" stroke="#FC0000" stroke-width="5" stroke-linecap="round" stroke-linejoin="round" stroke-miterlimit="10" x1="50.569" y1="5.068" x2="50.569" y2="95.271"/>
		</g>
		<g>
			
				<circle fill="none" stroke="#FC0000" stroke-width="5" stroke-linecap="round" stroke-linejoin="round" stroke-miterlimit="10" cx="74.907" cy="65.939" r="18.751"/>
			<path fill="none" stroke="#FC0000" stroke-width="5" stroke-linecap="round" stroke-linejoin="round" stroke-miterlimit="10" d="
				M74.906,55.063c2.783,0,5.566,1.062,7.691,3.186c2.123,2.124,3.186,4.907,3.187,7.69"/>
			
				<line fill="none" stroke="#FC0000" stroke-width="5" stroke-linecap="round" stroke-linejoin="round" stroke-miterlimit="10" x1="88.166" y1="79.198" x2="94.055" y2="85.089"/>
			<path fill="none" stroke="#FC0000" stroke-width="5" stroke-linecap="round" stroke-linejoin="round" stroke-miterlimit="10" d="
				M123.59,112.13l-2.492,2.494c-1.152,1.151-3.035,1.151-4.187,0L92.809,90.521c-1.149-1.151-1.149-3.035,0-4.186l2.494-2.494
				c1.15-1.15,3.034-1.15,4.186,0l24.103,24.104C124.741,109.098,124.741,110.979,123.59,112.13z"/>
		</g>
	</g>
</g>
<g id="Calque_4" display="none">
	<g display="inline">
		<g>
			
				<circle fill="none" stroke="#FF0000" stroke-width="5" stroke-linecap="round" stroke-linejoin="round" stroke-miterlimit="10" cx="35.264" cy="89.628" r="11.541"/>
			
				<circle fill="none" stroke="#FF0000" stroke-width="5" stroke-linecap="round" stroke-linejoin="round" stroke-miterlimit="10" cx="35.264" cy="89.628" r="27.871"/>
		</g>
		
			<line fill="none" stroke="#FF0000" stroke-width="5" stroke-linecap="round" stroke-linejoin="round" stroke-miterlimit="10" x1="35.264" y1="111.037" x2="35.264" y2="122.191"/>
		
			<line fill="none" stroke="#FF0000" stroke-width="5" stroke-linecap="round" stroke-linejoin="round" stroke-miterlimit="10" x1="35.264" y1="57.063" x2="35.264" y2="69.509"/>
		
			<line fill="none" stroke="#FF0000" stroke-width="5" stroke-linecap="round" stroke-linejoin="round" stroke-miterlimit="10" x1="15.067" y1="89.628" x2="2.699" y2="89.628"/>
		
			<line fill="none" stroke="#FF0000" stroke-width="5" stroke-linecap="round" stroke-linejoin="round" stroke-miterlimit="10" x1="67.83" y1="89.628" x2="55.838" y2="89.628"/>
	</g>
	<g display="inline">
		<polygon fill="#FF0000" points="100.587,74.559 100.587,61.274 89.07,67.917 77.555,74.559 89.07,81.211 100.587,87.854 		"/>
		<path fill="#FF0000" d="M79.46,78.42c0,1.071-0.86,1.939-1.931,1.939h-7.688c-1.063,0-1.931-0.868-1.931-1.939v-7.681
			c0-1.069,0.868-1.931,1.931-1.931h7.688c1.07,0,1.931,0.86,1.931,1.931V78.42z"/>
	</g>
	<path display="inline" fill="none" stroke="#FF0000" stroke-width="5" stroke-miterlimit="10" d="M93.613,29.837
		c0,5.8-1.438,11.164-3.885,15.499c-3.658,6.498-9.554,13.615-16.203,13.615c-6.547,0-12.362-6.98-16.029-13.294
		c-2.557-4.4-4.069-9.877-4.069-15.82c0-14.477,8.999-26.209,20.099-26.209c2.099,0,4.134,0.418,6.039,1.199
		C87.711,8.171,93.613,18.104,93.613,29.837z"/>
	
		<path display="inline" fill="none" stroke="#FF0000" stroke-width="5" stroke-linecap="round" stroke-linejoin="round" stroke-miterlimit="10" d="
		M114.637,82.225c12.338,13.373,9.329,31.301,9.329,31.301s-4.077,8.863-50.394,8.863c-7.696,0-22.852-0.906-22.852-0.906"/>
</g>
<g id="Calque_2_1_">
	<g>
		
			<line fill="none" stroke="#FF0000" stroke-width="5" stroke-linecap="round" stroke-linejoin="round" stroke-miterlimit="10" x1="95.707" y1="105.692" x2="119.177" y2="126.473"/>
	</g>
</g>
<g id="Calque_2_2_">
	<g>
		
			<line fill="none" stroke="#FF0000" stroke-width="5" stroke-linecap="round" stroke-linejoin="round" stroke-miterlimit="10" x1="103.53" y1="96.148" x2="127" y2="116.929"/>
	</g>
</g>
</svg>
