<?xml version="1.0" encoding="UTF-8"?>
<!DOCTYPE svg PUBLIC "-//W3C//DTD SVG 1.1//EN" "http://www.w3.org/Graphics/SVG/1.1/DTD/svg11.dtd">
<svg version="1.2" width="34.13mm" height="34.13mm" viewBox="0 0 3413 3413" preserveAspectRatio="xMidYMid" fill-rule="evenodd" stroke-width="28.222" stroke-linejoin="round" xmlns="http://www.w3.org/2000/svg" xmlns:ooo="http://xml.openoffice.org/svg/export" xmlns:xlink="http://www.w3.org/1999/xlink" xmlns:presentation="http://sun.com/xmlns/staroffice/presentation" xmlns:smil="http://www.w3.org/2001/SMIL20/" xmlns:anim="urn:oasis:names:tc:opendocument:xmlns:animation:1.0" xmlns:svg="urn:oasis:names:tc:opendocument:xmlns:svg-compatible:1.0" xml:space="preserve">
 <defs class="ClipPathGroup">
  <clipPath id="presentation_clip_path" clipPathUnits="userSpaceOnUse">
   <rect x="0" y="0" width="3413" height="3413"/>
  </clipPath>
  <clipPath id="presentation_clip_path_shrink" clipPathUnits="userSpaceOnUse">
   <rect x="3" y="3" width="3407" height="3407"/>
  </clipPath>
 </defs>
 <defs class="TextShapeIndex">
  <g ooo:slide="id1" ooo:id-list="id3 id4"/>
 </defs>
 <defs class="EmbeddedBulletChars">
  <g id="bullet-char-template-57356" transform="scale(0.00048828125,-0.00048828125)">
   <path d="M 580,1141 L 1163,571 580,0 -4,571 580,1141 Z"/>
  </g>
  <g id="bullet-char-template-57354" transform="scale(0.00048828125,-0.00048828125)">
   <path d="M 8,1128 L 1137,1128 1137,0 8,0 8,1128 Z"/>
  </g>
  <g id="bullet-char-template-10146" transform="scale(0.00048828125,-0.00048828125)">
   <path d="M 174,0 L 602,739 174,1481 1456,739 174,0 Z M 1358,739 L 309,1346 659,739 1358,739 Z"/>
  </g>
  <g id="bullet-char-template-10132" transform="scale(0.00048828125,-0.00048828125)">
   <path d="M 2015,739 L 1276,0 717,0 1260,543 174,543 174,936 1260,936 717,1481 1274,1481 2015,739 Z"/>
  </g>
  <g id="bullet-char-template-10007" transform="scale(0.00048828125,-0.00048828125)">
   <path d="M 0,-2 C -7,14 -16,27 -25,37 L 356,567 C 262,823 215,952 215,954 215,979 228,992 255,992 264,992 276,990 289,987 310,991 331,999 354,1012 L 381,999 492,748 772,1049 836,1024 860,1049 C 881,1039 901,1025 922,1006 886,937 835,863 770,784 769,783 710,716 594,584 L 774,223 C 774,196 753,168 711,139 L 727,119 C 717,90 699,76 672,76 641,76 570,178 457,381 L 164,-76 C 142,-110 111,-127 72,-127 30,-127 9,-110 8,-76 1,-67 -2,-52 -2,-32 -2,-23 -1,-13 0,-2 Z"/>
  </g>
  <g id="bullet-char-template-10004" transform="scale(0.00048828125,-0.00048828125)">
   <path d="M 285,-33 C 182,-33 111,30 74,156 52,228 41,333 41,471 41,549 55,616 82,672 116,743 169,778 240,778 293,778 328,747 346,684 L 369,508 C 377,444 397,411 428,410 L 1163,1116 C 1174,1127 1196,1133 1229,1133 1271,1133 1292,1118 1292,1087 L 1292,965 C 1292,929 1282,901 1262,881 L 442,47 C 390,-6 338,-33 285,-33 Z"/>
  </g>
  <g id="bullet-char-template-9679" transform="scale(0.00048828125,-0.00048828125)">
   <path d="M 813,0 C 632,0 489,54 383,161 276,268 223,411 223,592 223,773 276,916 383,1023 489,1130 632,1184 813,1184 992,1184 1136,1130 1245,1023 1353,916 1407,772 1407,592 1407,412 1353,268 1245,161 1136,54 992,0 813,0 Z"/>
  </g>
  <g id="bullet-char-template-8226" transform="scale(0.00048828125,-0.00048828125)">
   <path d="M 346,457 C 273,457 209,483 155,535 101,586 74,649 74,723 74,796 101,859 155,911 209,963 273,989 346,989 419,989 480,963 531,910 582,859 608,796 608,723 608,648 583,586 532,535 482,483 420,457 346,457 Z"/>
  </g>
  <g id="bullet-char-template-8211" transform="scale(0.00048828125,-0.00048828125)">
   <path d="M -4,459 L 1135,459 1135,606 -4,606 -4,459 Z"/>
  </g>
  <g id="bullet-char-template-61548" transform="scale(0.00048828125,-0.00048828125)">
   <path d="M 173,740 C 173,903 231,1043 346,1159 462,1274 601,1332 765,1332 928,1332 1067,1274 1183,1159 1299,1043 1357,903 1357,740 1357,577 1299,437 1183,322 1067,206 928,148 765,148 601,148 462,206 346,322 231,437 173,577 173,740 Z"/>
  </g>
 </defs>
 <g>
  <g id="id2" class="Master_Slide">
   <g id="bg-id2" class="Background"/>
   <g id="bo-id2" class="BackgroundObjects"/>
  </g>
 </g>
 <g class="SlideGroup">
  <g>
   <g id="container-id1">
    <g id="id1" class="Slide" clip-path="url(#presentation_clip_path)">
     <g class="Page">
      <g class="Graphic">
       <g id="id3">
        <rect class="BoundingBox" stroke="none" fill="none" x="1139" y="1139" width="2274" height="2274"/>
        <path fill="rgb(255,0,0)" stroke="none" d="M 3203,2379 C 3203,1865 2786,1449 2272,1449 1759,1449 1342,1865 1342,2379 1342,2633 1444,2863 1609,3030 L 1333,3306 1403,3375 1681,3097 C 1841,3230 2048,3309 2272,3309 2497,3309 2703,3229 2864,3097 L 3142,3375 3211,3306 2936,3030 C 3101,2863 3203,2633 3203,2379 L 3203,2379 Z M 2272,3211 C 1813,3211 1441,2839 1440,2379 1441,1919 1813,1547 2272,1547 2732,1547 3104,1919 3105,2379 3104,2839 2732,3211 2272,3211 L 2272,3211 Z M 2321,2242 L 2321,1686 2223,1686 2223,2242 C 2182,2257 2150,2289 2136,2330 L 1755,2330 1755,2428 2135,2428 C 2156,2484 2209,2525 2272,2525 2353,2525 2418,2460 2418,2379 2418,2316 2378,2262 2321,2242 L 2321,2242 Z M 1293,1659 C 1293,1602 1315,1546 1358,1502 1402,1459 1458,1437 1515,1437 1572,1437 1629,1459 1672,1502 L 1741,1433 1741,1433 C 1679,1371 1597,1339 1515,1339 1434,1339 1351,1371 1289,1433 1227,1495 1195,1577 1195,1659 1195,1741 1227,1823 1289,1885 L 1359,1816 C 1315,1773 1293,1716 1293,1659 L 1293,1659 Z M 3255,1433 C 3193,1371 3111,1339 3029,1339 2947,1339 2865,1371 2803,1433 L 2872,1502 C 2916,1459 2972,1437 3029,1437 3086,1437 3142,1459 3186,1502 3229,1546 3251,1602 3251,1659 3251,1716 3229,1773 3186,1816 L 3255,1885 C 3318,1823 3349,1741 3349,1659 3349,1577 3318,1495 3255,1433 L 3255,1433 Z"/>
       </g>
      </g>
      <g class="com.sun.star.drawing.ClosedBezierShape">
       <g id="id4">
        <rect class="BoundingBox" stroke="none" fill="none" x="26" y="26" width="1808" height="1808"/>
        <path fill="rgb(255,0,0)" stroke="none" d="M 1753,27 L 107,27 C 63,27 27,63 27,107 L 27,1753 C 27,1796 63,1832 107,1832 L 1753,1832 C 1796,1832 1832,1796 1832,1753 L 1832,107 C 1832,63 1796,27 1753,27 Z M 430,1445 C 357,1445 298,1385 298,1312 298,1239 357,1179 430,1179 504,1179 563,1239 563,1312 563,1385 504,1445 430,1445 Z M 430,1042 C 357,1042 298,982 298,909 298,836 357,776 430,776 504,776 563,836 563,909 563,982 504,1042 430,1042 Z M 430,638 C 357,638 298,579 298,506 298,433 357,373 430,373 504,373 563,433 563,506 563,579 504,638 430,638 Z M 1452,1422 L 824,1422 C 763,1422 714,1373 714,1312 714,1251 763,1201 824,1201 L 1452,1201 C 1513,1201 1563,1251 1563,1312 1563,1373 1513,1422 1452,1422 Z M 1452,1019 L 824,1019 C 763,1019 714,970 714,909 714,848 763,798 824,798 L 1452,798 C 1513,798 1563,848 1563,909 1563,970 1513,1019 1452,1019 Z M 1452,616 L 824,616 C 763,616 714,566 714,505 714,444 763,395 824,395 L 1452,395 C 1513,395 1563,444 1563,505 1563,566 1513,616 1452,616 Z"/>
       </g>
      </g>
     </g>
    </g>
   </g>
  </g>
 </g>
</svg>