<?xml version="1.0" encoding="utf-8"?>
<!-- Generator: Adobe Illustrator 16.0.0, SVG Export Plug-In . SVG Version: 6.00 Build 0)  -->
<!DOCTYPE svg PUBLIC "-//W3C//DTD SVG 1.1//EN" "http://www.w3.org/Graphics/SVG/1.1/DTD/svg11.dtd">
<svg version="1.1" xmlns="http://www.w3.org/2000/svg" xmlns:xlink="http://www.w3.org/1999/xlink" x="0px" y="0px" width="128px"
	 height="128px" viewBox="0 0 128 128" enable-background="new 0 0 128 128" xml:space="preserve">
<g id="Calque_1" display="none">
	<g id="Calque_1_1_" display="inline">
		<path fill="#FF0000" d="M103.471,72.73l-4.455,2.57l17.076,29.579H85.673V89.465l-31.195,18.02l31.195,18.013v-15.474H125
			L103.471,72.73z M80.523,116.58l-15.762-9.098l15.762-9.103V116.58z M13.563,104.957l15.374-26.471l13.341,7.699V50.174
			l-3.859,2.229L11.076,68.18l13.408,7.737L4.622,110.098h43.087v-5.147h-0.005L13.563,104.957z M21.367,68.18l15.766-9.096v18.198
			L21.367,68.18z M64.754,16.104l15.206,26.42L66.622,50.23l31.192,18.006V32.229l-3.854,2.223l-9.544,5.5L64.764,5.816
			L43.23,43.114l4.451,2.571L64.754,16.104z M92.673,41.127v18.199l-15.771-9.097L92.673,41.127z"/>
	</g>
	<g id="Calque_2">
		<g display="inline">
			<path fill="#FF0000" d="M58.242,71.699l2.234,26.217l31.167-59.624L32.04,69.458L58.242,71.699z M64.55,77.678l-0.964-11.313
				l-2.424-0.214l-8.907-0.758L78.004,51.93L64.55,77.678z M70.143,16.587V9.075h-5.768v7.512
				c-23.596,1.438-42.438,20.281-43.876,43.869h-7.512v5.767h7.512c1.438,23.59,20.281,42.424,43.876,43.869v7.506h5.768v-7.506
				c23.588-1.445,42.416-20.279,43.861-43.869h7.52v-5.767h-7.52C112.559,36.868,93.73,18.026,70.143,16.587z M67.259,104.465
				c-22.72-0.044-41.095-18.427-41.125-41.125c0.029-22.712,18.404-41.087,41.125-41.131c22.697,0.044,41.072,18.419,41.116,41.131
				C108.331,86.053,89.956,104.421,67.259,104.465z"/>
		</g>
	</g>
</g>
<g id="Calque_2_1_">
	<path fill="#FF0000" d="M67.62,1.839H5.371c-1.657,0-3,1.343-3,3V67.09c0,1.656,1.343,3,3,3h62.25c1.658,0,3-1.344,3-3V4.839
		C70.62,3.182,69.28,1.839,67.62,1.839z M17.601,55.411c-2.768,0-5.012-2.242-5.012-5.01s2.244-5.01,5.012-5.01
		c2.766,0,5.01,2.242,5.01,5.01S20.367,55.411,17.601,55.411z M17.601,40.174c-2.768,0-5.012-2.243-5.012-5.01
		c0-2.768,2.244-5.011,5.012-5.011c2.766,0,5.01,2.243,5.01,5.011C22.611,37.931,20.367,40.174,17.601,40.174z M17.601,24.936
		c-2.768,0-5.012-2.243-5.012-5.01c0-2.768,2.244-5.011,5.012-5.011c2.766,0,5.01,2.243,5.01,5.011
		C22.611,22.693,20.367,24.936,17.601,24.936z M56.228,54.56H32.499c-2.305,0-4.173-1.87-4.173-4.176
		c0-2.306,1.869-4.176,4.173-4.176h23.729c2.306,0,4.175,1.87,4.175,4.176C60.403,52.69,58.532,54.56,56.228,54.56z M56.228,39.321
		H32.499c-2.305,0-4.173-1.869-4.173-4.176c0-2.305,1.869-4.175,4.173-4.175h23.729c2.306,0,4.175,1.87,4.175,4.175
		C60.401,37.452,58.532,39.321,56.228,39.321z M56.228,24.083H32.499c-2.305,0-4.173-1.87-4.173-4.175
		c0-2.305,1.869-4.175,4.173-4.175h23.729c2.306,0,4.175,1.87,4.175,4.175C60.403,22.213,58.532,24.083,56.228,24.083z"/>
	<g id="Calque_3">
		
			<path fill="none" stroke="#FF0000" stroke-width="3.494" stroke-linecap="round" stroke-linejoin="round" stroke-miterlimit="10" d="
			M79.827,118.578"/>
		
			<path fill="none" stroke="#FF0000" stroke-width="3.494" stroke-linecap="round" stroke-linejoin="round" stroke-miterlimit="10" d="
			M83.024,81.646"/>
		<g>
			<g>
				<g>
					
						<path fill="none" stroke="#FF0000" stroke-width="4.2596" stroke-linecap="round" stroke-linejoin="round" stroke-miterlimit="10" d="
						M76.407,40.404c2.129-0.324,4.31-0.492,6.53-0.492c23.773-0.001,43.046,19.272,43.044,43.045
						c0,23.77-19.27,43.041-43.042,43.041c-23.773,0.004-43.047-19.27-43.043-43.044c0-2.863,0.28-5.661,0.813-8.368"/>
				</g>
			</g>
		</g>
	</g>
	<g id="Calque_6">
		<g>
			
				<circle fill="none" stroke="#FF0000" stroke-width="3.1543" stroke-linecap="round" stroke-linejoin="round" stroke-miterlimit="10" cx="82.939" cy="74.857" r="11.25"/>
			
				<path fill="none" stroke="#FF0000" stroke-width="3.1543" stroke-linecap="round" stroke-linejoin="round" stroke-miterlimit="10" d="
				M64.742,104.302c0-10.05,8.148-18.196,18.196-18.196c10.051,0,18.197,8.146,18.197,18.196H64.742z"/>
		</g>
	</g>
	<g id="Calque_2_3_">
		<g>
			
				<line fill="none" stroke="#FF0000" stroke-width="4.2596" stroke-linecap="round" stroke-linejoin="round" stroke-miterlimit="10" x1="110.125" y1="118.578" x2="121.802" y2="127.583"/>
		</g>
	</g>
	<g id="Calque_2_2_">
		<g>
			
				<line fill="none" stroke="#FF0000" stroke-width="4.2596" stroke-linecap="round" stroke-linejoin="round" stroke-miterlimit="10" x1="116.789" y1="110.448" x2="128" y2="120.375"/>
		</g>
	</g>
</g>
</svg>
