<?xml version="1.0" encoding="utf-8"?>
<!-- Generator: Adobe Illustrator 16.0.0, SVG Export Plug-In . SVG Version: 6.00 Build 0)  -->
<!DOCTYPE svg PUBLIC "-//W3C//DTD SVG 1.1//EN" "http://www.w3.org/Graphics/SVG/1.1/DTD/svg11.dtd">
<svg version="1.1" xmlns="http://www.w3.org/2000/svg" xmlns:xlink="http://www.w3.org/1999/xlink" x="0px" y="0px" width="128px"
	 height="128px" viewBox="0 0 128 128" enable-background="new 0 0 128 128" xml:space="preserve">
<g id="Calque_1">
	<path fill="#FF0000" d="M116.612,69.874c0-29.155-23.642-52.79-52.789-52.796c-29.161,0.007-52.796,23.641-52.796,52.796
		c0,14.404,5.765,27.455,15.121,36.974l-15.616,15.623l3.925,3.925l15.786-15.779c9.12,7.531,20.818,12.055,33.581,12.055
		c12.749-0.007,24.447-4.53,33.567-12.055l15.787,15.779l3.923-3.925l-15.616-15.623C110.841,97.329,116.612,84.278,116.612,69.874z
		 M63.823,117.113c-26.095-0.045-47.202-21.152-47.246-47.239c0.044-26.088,21.15-47.195,47.246-47.239
		c26.088,0.044,47.18,21.151,47.233,47.239C111.003,95.961,89.911,117.068,63.823,117.113z M66.595,62.114V30.565h-5.558v31.548
		c-2.327,0.835-4.146,2.661-4.98,4.988H34.455v5.551h21.594c1.154,3.2,4.176,5.506,7.774,5.506c4.567,0,8.277-3.71,8.277-8.284
		C72.101,66.289,69.796,63.26,66.595,62.114z M8.263,29.02c0-3.229,1.227-6.437,3.681-8.905c2.468-2.461,5.676-3.688,8.913-3.688
		c3.237,0,6.444,1.219,8.905,3.688l3.924-3.917V16.19c-3.533-3.54-8.196-5.321-12.83-5.313c-4.634-0.008-9.297,1.773-12.83,5.313
		c-3.541,3.533-5.321,8.188-5.321,12.83c0,4.634,1.773,9.29,5.321,12.838l3.932-3.925C9.482,35.458,8.263,32.25,8.263,29.02z
		 M119.606,16.19c-3.54-3.54-8.203-5.321-12.83-5.313c-4.641-0.008-9.305,1.773-12.837,5.313l3.924,3.925
		c2.469-2.461,5.676-3.688,8.913-3.688c3.23,0,6.429,1.227,8.905,3.688c2.461,2.46,3.688,5.676,3.688,8.905
		c0,3.237-1.227,6.444-3.688,8.906l3.925,3.932c3.547-3.541,5.32-8.204,5.313-12.838C124.927,24.379,123.138,19.724,119.606,16.19z"
		/>
</g>
<g id="Calque_2" display="none">
	<g display="inline">
		<path fill="#FF0000" d="M58.242,71.699l2.234,26.217l31.167-59.624L32.04,69.458L58.242,71.699z M64.55,77.678l-0.964-11.314
			l-2.424-0.213l-8.907-0.759L78.004,51.93L64.55,77.678z M70.142,16.587V9.075h-5.767v7.512
			c-23.596,1.438-42.438,20.281-43.876,43.869h-7.512v5.767h7.512c1.438,23.589,20.281,42.423,43.876,43.869v7.505h5.767v-7.505
			c23.589-1.446,42.416-20.28,43.862-43.869h7.52v-5.767h-7.52C112.558,36.868,93.73,18.026,70.142,16.587z M67.259,104.465
			c-22.72-0.044-41.095-18.427-41.125-41.125c0.029-22.712,18.404-41.087,41.125-41.131c22.697,0.044,41.072,18.419,41.116,41.131
			C108.331,86.053,89.956,104.421,67.259,104.465z"/>
	</g>
</g>
</svg>
